P3
50 50
255
 99 54 31 79 37 13 74 33 11 65 27 8 127 87 75 131 97 88 190 162 159 206
186 185 191 181 180 212 207 204 219 214 211 217 203 202 201 173 172 176 140 140 159 121
120 113 75 74 73 34 35 56 20 22 47 15 18 75 45 47 58 29 33 46 20 21
 49 25 25 46 22 22 55 34 33 56 35 34 38 18 19 60 41 37 50 30 19 71
 48 34 89 61 47 100 64 52 110 61 54 119 56 51 125 43 45 127 35 38 187 86
 92 192 88 95 203 104 109 207 112 116 205 113 118 217 125 130 221 126 132 199 107 112
189 102 108 209 124 129 201 115 118 144 62 66 132 57 61 125 63 66
 88 52 38 135 103 90 174 146 135 162 133 127 229 200 196 202 174 173 124 96 95 98
 72 71 79 55 53 90 69 64 94 75 69 81 61 54 49 22 15 77 47 39 89 52
 44 102 63 56 127 86 82 118 79 80 122 90 95 169 142 149 147 126 133 133 114 118
110 92 92 148 130 130 167 151 152 128 112 115 101 86 93 82 66 69 47 27 18 53
 27 12 69 40 24 96 60 44 190 144 129 255 204 189 198 132 118 123 51 37 122 44
 31 121 42 29 128 48 37 137 59 47 129 51 41 141 62 55 155 76 69 126 48 44
154 82 85 199 124 129 148 68 71 118 38 41 171 95 99 123 61 64
122 92 84 234 209 204 241 220 215 156 135 132 139 117 119 109 84 87 51 25 28 58
 29 31 46 18 17 54 24 22 76 47 43 98 69 61 116 82 73 106 68 57 104 57
 47 124 74 65 142 91 87 122 74 72 101 60 66 108 75 82 221 196 200 239 221 221
239 221 217 255 243 236 255 246 239 196 181 178 164 152 154 202 186 187 73 48 41 92
 63 49 78 46 31 86 49 31 183 140 121 255 213 191 241 187 163 207 149 125 149 87
 62 152 88 63 129 64 42 153 88 68 162 99 81 105 42 27 87 25 12 115 52 43
111 47 48 117 48 53 114 38 40 148 68 69 182 106 110 133 71 74
205 177 174 255 231 227 177 158 154 53 34 30 46 26 27 51 31 32 48 26 29 95
 70 74 119 90 94 158 128 130 199 169 169 241 203 200 190 140 133 134 74 64 101 33
 24 101 31 23 101 30 26 95 30 28 90 34 35 81 35 35 144 111 106 171 144 135
175 154 135 180 162 140 192 174 152 133 116 98 107 89 75 189 169 158 78 50 39 124
 92 81 112 78 66 130 93 75 211 170 150 254 210 185 254 204 177 252 201 172 255 203
175 255 201 175 226 174 150 251 201 178 227 179 159 122 75 59 83 37 22 97 47 38
 98 40 39 120 54 58 149 75 76 195 117 117 201 126 130 136 74 77
124 96 93 102 79 73 69 48 43 70 51 45 164 146 142 181 161 160 178 156 158 203
178 181 221 192 196 252 222 222 230 196 195 207 159 157 143 74 69 111 28 22 111 22
 16 123 32 27 112 23 19 116 35 32 116 48 45 83 30 24 85 45 33 78 47 27
 63 37 10 48 28 0 73 53 20 59 40 8 44 24 0 120 98 77 67 39 27 88
 58 47 88 56 43 157 122 103 236 198 175 244 204 178 243 202 172 244 201 169 251 206
175 243 198 169 251 207 180 255 214 190 171 133 114 111 74 58 123 87 75 87 46 40
 85 31 31 163 101 104 196 124 125 211 137 136 206 134 137 128 68 70
 62 33 29 52 25 18 93 71 60 187 167 158 234 215 208 228 209 203 214 193 188 233
209 205 245 216 212 248 215 210 172 133 128 116 59 52 111 22 16 124 16 13 159 50
 45 179 70 67 163 59 56 162 71 68 144 69 64 87 29 18 108 65 48 102 71 43
115 89 54 101 79 40 93 71 30 80 58 19 45 25 0 58 37 10 69 46 30 38
 11 0 45 18 1 156 128 107 239 207 182 240 207 176 248 214 179 247 213 176 238 202
166 238 202 168 255 223 195 223 189 164 111 78 61 102 70 59 178 148 140 180 142 139
 69 19 20 125 65 67 165 95 95 202 131 129 192 122 124 114 55 57
178 143 137 188 155 148 203 175 164 230 206 194 218 196 185 198 178 167 198 176 163 216
192 180 189 160 146 154 116 103 95 51 38 102 38 26 145 44 36 166 47 41 184 65
 61 184 69 66 169 64 61 159 68 65 128 55 48 78 22 9 150 109 89 173 142 113
226 200 165 229 204 164 192 167 127 175 151 113 162 139 105 148 124 98 73 47 32 57
 31 18 109 82 65 214 186 164 253 223 195 235 205 171 238 208 170 246 217 177 227 198
158 243 213 177 240 209 180 162 132 108 67 38 22 46 17 9 103 75 71 186 152 151
126 80 82 75 19 20 112 47 45 205 137 134 176 110 111 99 45 45
188 145 139 211 170 166 219 182 176 201 168 159 175 149 136 155 132 114 158 136 115 166
140 117 121 89 64 91 51 26 69 23 0 124 56 35 142 38 27 172 51 43 175 57
 53 170 61 58 160 65 63 125 46 42 84 24 16 69 23 8 96 61 41 108 81 54
137 110 80 150 121 91 125 96 66 133 103 77 173 147 122 178 151 130 65 33 20 94
 60 48 165 132 115 223 191 168 247 214 183 239 209 173 227 198 158 235 206 164 243 214
172 251 223 184 220 194 161 118 92 67 70 44 29 52 28 18 50 25 21 145 115 115
203 161 162 96 45 44 99 38 35 197 132 128 166 102 102 89 38 37
 81 33 31 94 48 48 118 77 73 117 80 71 111 82 64 83 59 33 72 49 17 79
 55 19 80 50 12 107 69 30 94 50 13 127 62 32 145 48 31 173 62 53 161 56
 50 148 55 50 134 55 51 84 21 16 54 7 0 83 47 33 72 41 23 70 39 18
 71 36 14 92 54 33 82 41 23 69 30 13 92 56 40 83 45 32 64 20 11 89
 41 31 119 73 58 137 95 73 204 165 136 255 224 188 244 211 170 242 211 167 245 216
174 222 197 157 174 150 116 59 35 9 44 23 6 72 52 41 40 19 14 91 65 64
218 180 179 137 87 86 102 43 39 164 101 96 153 93 92 87 37 36
 83 34 37 76 27 30 72 28 25 64 28 16 45 17 0 59 37 0 75 57 11 114
 94 43 154 129 75 188 157 103 188 150 101 141 88 48 124 42 20 150 61 47 125 42
 34 111 40 34 91 33 29 121 78 72 160 130 120 193 167 154 207 178 164 232 196 180
249 203 188 221 167 155 154 97 88 94 37 30 75 22 16 87 32 29 91 27 25 89
 22 16 86 22 12 77 18 2 104 52 28 200 154 121 255 223 185 246 211 169 237 208
166 203 178 138 104 81 47 50 30 3 51 34 14 44 28 15 45 31 22 47 26 21
145 111 109 186 141 138 77 22 17 188 129 123 178 120 118 91 43 41
109 64 61 88 45 39 70 32 19 65 33 10 114 92 51 74 58 6 33 22 0 115
102 32 214 197 127 183 163 94 151 123 58 194 153 101 133 70 39 122 54 35 95 33
 22 156 103 95 197 156 150 239 208 203 255 244 234 255 242 231 255 241 229 241 194 184
186 126 118 132 63 58 94 20 19 82 8 7 95 27 26 118 50 49 115 41 40 114
 39 36 117 47 39 101 35 21 88 30 10 145 94 65 226 181 148 255 219 182 254 222
184 160 134 99 67 44 12 103 83 56 146 129 109 81 65 50 43 29 18 77 58 51
178 147 142 136 95 91 104 51 45 189 132 125 136 81 78 133 88 85
 79 42 26 59 24 4 69 40 8 105 84 39 201 187 126 166 158 83 119 114 30 172
168 77 233 228 137 162 152 65 99 84 1 143 118 51 186 144 102 138 90 67 95 49
 34 198 158 150 254 221 216 255 242 238 255 247 241 237 203 193 143 96 86 124 64 54
110 33 27 114 26 24 126 36 36 137 49 48 139 58 57 143 65 63 135 59 59 130
 56 53 141 72 65 129 67 56 92 35 18 114 64 41 204 160 133 255 237 208 236 205
174 120 93 63 63 39 11 163 141 117 210 189 170 100 78 64 59 40 26 144 120 110
187 158 152 94 57 51 128 79 72 167 114 106 101 48 44 175 131 128
 57 31 0 67 44 2 110 90 39 172 158 95 224 217 139 220 216 127 212 212 116 211
211 111 215 216 114 207 205 105 155 151 54 89 76 0 136 108 58 119 84 52 118 81
 62 255 219 210 255 244 243 246 208 207 218 177 173 147 98 91 86 26 16 103 29 20
132 44 40 158 64 62 168 72 73 157 66 65 141 57 55 131 56 53 113 43 41 97
 33 31 106 47 41 106 52 42 76 27 13 80 37 20 145 107 86 207 172 150 169 139
115 83 57 34 50 23 2 104 79 59 113 87 72 62 36 23 103 75 63 215 187 176
146 117 109 84 49 43 130 83 75 134 84 75 92 41 37 170 129 125
134 119 54 162 149 79 183 174 99 212 205 124 213 207 119 215 212 119 235 232 135 216
217 115 190 191 87 218 219 115 210 212 105 140 135 44 130 112 50 117 87 49 112 74
 51 227 180 170 217 163 163 149 90 94 129 65 66 79 9 7 140 63 57 152 67 60
165 74 69 165 71 69 142 51 50 112 28 26 97 22 16 94 31 24 88 35 31 69
 24 19 71 28 22 72 34 25 56 22 12 53 21 10 73 45 31 92 66 51 79 53
 38 57 31 16 53 27 12 48 20 6 46 16 5 91 59 48 154 120 110 187 155 144
 92 63 55 76 43 36 113 69 60 120 72 62 89 40 35 123 82 78
218 210 125 225 218 130 219 213 125 215 209 121 200 194 106 158 152 64 158 153 62 184
179 87 201 198 101 207 205 104 199 201 94 198 195 100 202 187 118 140 112 65 74 30
 3 131 73 62 119 47 51 95 14 23 127 40 48 138 48 50 144 53 50 141 50 45
138 47 44 131 43 41 112 32 31 90 19 17 78 19 11 77 29 19 77 38 33 69
 36 31 69 38 33 67 40 33 58 33 28 52 32 25 50 30 23 42 23 16 39 21
 11 53 33 22 71 47 37 53 26 15 77 47 37 151 119 108 147 113 101 77 45 34
 67 38 30 60 30 22 97 54 45 126 78 68 85 36 31 75 36 31
216 211 111 203 199 100 209 202 111 205 197 112 144 133 54 77 63 0 60 46 0 110
 96 23 182 171 91 220 213 123 213 209 112 212 205 114 247 229 157 173 140 89 93 40
 9 128 54 45 138 45 53 140 35 50 156 48 61 170 63 69 163 60 63 137 43 41
113 27 26 100 24 24 91 27 27 79 28 25 73 34 27 71 41 33 56 28 24 57
 32 28 59 35 33 54 35 31 50 32 30 46 32 29 45 31 30 41 30 28 51 37
 34 51 38 32 52 35 27 37 17 8 70 46 36 113 87 74 84 55 41 44 16 4
 64 37 28 62 32 24 91 48 39 120 73 63 101 54 48 63 24 19
180 170 75 177 166 76 201 189 107 202 185 113 76 56 0 75 53 0 96 71 15 76
 51 0 78 59 0 165 149 74 218 208 123 211 199 117 179 159 90 130 94 42 79 22
 0 125 47 35 161 65 69 173 67 79 156 49 59 150 44 54 130 35 39 106 21 24
 85 13 14 79 19 19 74 28 28 66 31 27 57 32 25 54 34 27 56 37 31 57
 38 34 55 37 33 49 34 31 44 30 27 42 31 29 48 38 36 55 47 44 46 36
 34 45 34 30 49 34 29 51 32 26 73 50 42 61 34 23 42 12 2 93 63 52
 68 40 29 80 48 37 91 47 38 105 55 48 128 79 74 73 33 31
 81 53 0 80 51 0 163 136 81 192 166 115 60 32 0 89 58 11 122 88 43 93
 59 11 64 33 0 136 110 51 216 197 131 216 196 133 143 116 61 79 41 0 88 33
 2 126 58 39 145 62 56 150 61 63 141 52 58 137 54 62 91 20 26 81 22 26
 78 32 34 58 23 21 62 33 29 53 30 22 28 8 0 60 43 33 34 21 15 47
 36 30 52 39 31 43 30 22 36 23 15 36 26 17 40 31 22 44 37 29 24 17
 9 42 31 25 39 24 21 45 24 21 36 8 5 82 49 44 59 21 18 83 46 38
 71 39 26 74 38 24 125 72 66 120 60 59 104 48 49 78 36 37
105 68 23 83 46 2 88 55 12 172 143 101 154 125 83 71 40 0 48 14 0 96
 59 14 147 115 66 186 159 104 163 144 85 94 75 16 86 61 7 95 61 15 88 42
 6 96 40 13 126 59 43 119 46 40 91 19 20 85 19 21 75 19 22 69 23 25
 77 41 41 60 32 28 49 26 18 63 43 32 56 34 23 35 17 7 61 46 41 38
 25 19 30 15 8 48 34 25 61 47 36 48 36 24 35 25 15 40 31 22 45 36
 29 43 32 26 30 15 12 60 39 38 108 80 79 136 102 101 88 48 48 56 17 10
 53 20 5 69 30 15 114 55 49 110 46 46 93 37 40 81 39 41
135 98 54 90 55 13 58 26 0 168 141 98 228 204 158 155 128 81 151 123 75 195
168 115 177 155 98 123 107 45 91 82 15 76 69 1 83 69 8 142 121 66 106 75
 29 60 20 0 85 34 13 84 28 15 65 6 0 85 27 25 124 73 69 175 130 125
206 168 159 191 157 147 169 139 128 166 136 125 145 117 106 103 76 69 52 26 25 50
 26 26 58 34 32 54 34 27 37 19 9 35 17 7 52 35 27 64 49 42 39 26
 20 51 37 34 42 28 27 83 65 63 192 168 166 214 184 182 171 133 132 91 52 47
 65 28 12 96 53 37 120 61 55 113 49 49 88 33 36 92 53 56
 84 50 5 96 63 18 119 91 44 179 155 107 121 99 49 121 100 45 159 138 81 168
148 87 95 80 13 44 36 0 96 94 17 177 178 102 179 172 104 210 198 138 175 155
105 84 56 17 64 28 2 65 23 7 54 7 0 99 52 44 208 164 155 233 191 179
208 168 156 192 154 141 199 163 151 188 154 144 200 166 157 230 197 192 224 190 191 212
180 183 197 169 168 136 111 107 63 40 34 55 35 26 67 47 40 37 18 12 25 7
 5 75 60 57 61 47 46 64 48 48 196 175 174 237 209 208 234 195 196 136 95 91
 78 36 22 120 71 57 126 65 60 113 51 52 80 30 33 108 74 75
 76 46 0 110 82 32 146 123 71 132 111 56 79 60 1 66 51 0 61 46 0 60
 48 0 68 59 0 106 104 21 164 168 81 206 210 126 229 226 155 202 193 134 200 188
138 114 96 58 54 30 4 52 23 7 44 10 0 108 72 60 244 206 193 144 107 91
 66 27 10 76 39 23 86 48 35 69 32 23 129 92 86 231 193 192 202 163 168 140
104 108 113 83 83 94 69 65 51 28 22 48 25 19 65 40 36 47 22 18 127 103
103 175 155 156 103 89 89 41 25 25 160 139 138 222 192 192 227 187 188 120 75 72
 74 24 13 116 62 50 115 54 49 101 43 42 67 21 23 124 94 96
168 145 93 128 105 53 125 104 49 122 103 45 190 172 110 174 159 92 145 131 60 134
122 46 169 162 81 213 211 126 212 215 126 186 188 105 149 144 78 98 88 35 110 97
 53 65 49 15 27 7 0 44 18 3 65 37 25 149 119 108 167 135 122 75 42 27
100 64 48 169 133 117 136 100 88 65 28 20 66 28 25 124 85 86 79 38 44 69
 33 37 112 82 84 163 139 135 129 105 101 48 25 19 37 9 6 81 51 51 207 181
182 224 202 204 106 90 91 42 26 26 157 136 135 227 195 196 200 155 158 99 45 45
 93 36 27 125 65 55 122 61 56 105 49 48 66 26 26 149 125 125
184 164 114 152 132 81 164 144 91 215 196 140 204 185 126 210 192 128 202 184 118 195
181 110 205 193 119 200 193 113 176 171 89 159 153 79 65 49 0 63 44 4 56 33
 1 52 28 4 63 36 19 58 30 19 77 48 40 151 122 114 67 39 28 122 94 82
229 201 189 255 232 220 247 217 207 199 168 163 102 68 66 68 34 33 79 43 47 181
146 150 237 213 213 255 244 238 255 240 234 149 129 122 53 25 22 67 37 37 129 99
101 140 114 115 54 34 35 73 53 54 189 163 164 239 200 203 164 111 117 103 41 44
115 50 44 130 66 57 132 71 68 111 60 57 72 37 35 174 154 153
 87 69 29 101 82 40 98 77 32 109 88 41 158 136 87 126 106 55 97 78 22 108
 92 33 130 114 54 110 96 33 77 66 0 77 62 5 59 35 0 130 103 76 107 75
 54 125 92 75 160 126 114 90 56 47 55 22 15 85 55 47 57 30 21 202 180 169
236 214 203 136 114 103 203 176 169 255 239 233 138 107 102 65 31 29 150 114 118 255
227 230 196 175 172 137 120 113 245 228 220 253 233 226 119 91 87 53 22 20 47 15
 16 75 46 48 44 23 22 135 114 113 232 202 204 234 193 197 123 64 70 103 34 37
104 33 31 110 41 36 118 59 55 101 53 51 67 36 34 187 169 167
120 100 75 109 85 59 99 73 46 70 45 15 61 34 4 52 28 0 84 61 27 82
 62 25 56 36 0 64 46 6 77 59 19 82 62 27 140 112 90 140 104 88 107 68
 53 183 141 129 238 194 183 138 95 86 61 21 13 59 25 16 41 14 7 212 192 185
220 201 194 97 78 71 179 156 148 255 248 239 158 128 118 50 15 9 118 82 82 255
227 228 170 150 143 88 71 61 228 211 201 255 240 231 96 67 61 60 26 24 64 30
 29 95 65 65 152 128 126 211 187 185 248 217 215 182 140 141 95 34 39 119 48 52
139 63 63 127 56 54 121 63 61 81 40 36 129 101 98 236 221 218
184 161 147 170 144 129 173 144 128 181 152 136 146 117 99 163 136 117 165 140 120 159
138 117 184 166 144 168 152 129 115 98 78 121 100 83 93 63 52 98 61 52 69 26
 17 120 73 63 223 173 162 184 136 124 80 36 25 67 29 20 52 23 15 168 145 137
255 242 235 247 229 219 255 243 232 252 224 212 139 106 91 100 62 51 121 83 80 248
214 212 253 228 221 222 202 191 255 246 232 216 194 181 82 52 44 77 42 38 87 52
 50 173 142 139 238 213 209 235 207 204 206 172 170 162 116 116 113 53 55 106 36 38
132 54 54 132 61 59 103 50 46 71 34 28 146 122 118 253 239 236
110 83 76 86 59 50 112 82 74 99 69 61 130 100 92 143 116 107 134 111 103 122
105 95 147 133 124 124 111 102 55 42 34 49 32 25 38 13 8 96 66 58 109 71
 60 90 46 33 185 136 121 207 155 141 123 75 61 172 130 116 109 77 66 105 78 67
197 175 164 249 227 216 233 205 191 174 141 124 107 69 48 127 84 68 82 39 33 172
132 130 255 229 222 255 244 232 209 183 168 107 79 65 66 32 22 133 96 88 91 54
 48 184 151 146 244 215 211 220 189 184 140 103 97 85 37 33 92 31 30 104 34 34
112 33 36 122 52 52 73 25 21 78 47 42 192 173 166 255 252 246
112 87 83 93 65 61 94 63 60 106 75 72 72 43 39 51 26 22 66 47 43 57
 43 40 40 31 26 71 63 60 95 85 84 97 83 83 136 117 113 191 166 159 194 160
150 88 48 36 146 99 83 184 135 118 102 53 38 195 152 136 216 178 165 102 70 59
 67 39 28 71 43 31 79 47 32 113 76 57 154 112 90 205 160 141 139 92 84 113
 70 64 143 105 96 157 121 107 118 85 70 69 33 17 98 60 47 183 143 133 114 76
 67 197 158 151 217 182 176 181 142 135 114 69 64 84 29 24 123 58 54 144 70 69
130 54 56 132 66 67 74 33 27 126 101 94 239 225 216 222 209 201
147 126 121 147 123 119 87 59 55 184 155 151 73 45 42 68 44 40 124 109 104 134
125 120 105 100 97 153 147 147 209 200 203 211 200 204 226 210 210 238 219 213 224 195
187 119 85 75 183 141 129 211 163 149 76 28 14 137 89 75 252 210 198 199 161 150
163 127 115 154 118 104 166 129 111 208 167 149 249 207 185 255 225 206 226 179 169 134
 87 79 88 44 33 93 51 35 146 104 88 142 101 83 136 93 77 155 111 98 152 108
 97 229 185 176 194 149 143 119 70 63 105 47 43 136 71 65 170 95 90 150 72 70
135 59 61 121 59 60 87 50 44 182 162 153 255 251 242 161 147 138
 82 67 62 132 113 109 91 66 62 181 153 150 136 110 109 165 144 143 208 194 193 208
200 198 201 197 198 214 209 213 213 203 212 215 204 212 205 193 195 216 198 196 216 192
188 129 98 93 159 120 113 167 122 116 68 20 10 139 91 81 242 195 185 254 210 199
246 204 192 226 187 172 188 146 130 148 107 89 153 112 92 171 128 111 141 97 84 160
113 103 188 142 127 189 143 127 232 187 168 171 124 106 99 52 36 87 39 25 172 124
112 190 140 131 134 79 72 82 21 16 100 31 26 131 53 49 138 53 50 125 39 38
118 39 44 92 32 32 97 64 57 218 201 191 255 253 241 132 115 107
113 105 103 178 164 163 197 177 176 210 186 186 211 186 189 229 209 211 218 206 208 187
178 181 199 194 200 213 206 214 199 187 201 213 199 212 210 197 204 220 204 205 212 190
193 118 89 91 86 52 53 81 39 40 58 13 10 155 106 102 244 195 190 235 186 179
238 191 181 255 220 209 231 189 175 136 97 82 87 50 34 92 55 39 101 62 47 187
145 131 246 203 186 216 171 152 232 185 165 139 91 71 71 23 3 91 40 23 161 107
 95 130 71 63 111 46 40 111 37 34 128 44 42 134 43 42 132 34 33 143 49 50
136 57 62 94 35 37 123 94 88 243 229 218 255 249 237 127 109 99
209 205 206 213 204 207 222 207 210 201 185 188 216 199 205 220 205 210 213 202 208 185
178 186 195 187 198 220 209 223 213 199 216 214 200 215 216 204 214 215 202 209 214 197
205 166 145 150 152 125 130 140 105 109 103 63 63 142 98 95 249 200 195 156 106 97
124 74 63 207 158 144 255 217 202 233 190 174 206 167 152 220 181 166 247 207 195 240
198 184 188 142 126 112 65 47 172 124 102 139 91 69 115 64 43 151 98 80 119 59
 48 110 43 35 143 65 61 144 58 57 146 52 52 176 78 77 178 76 74 165 74 73
143 73 75 90 42 40 139 112 105 255 240 230 255 251 241 146 122 112
213 210 217 203 200 207 202 197 204 209 204 211 207 200 208 214 207 215 213 205 216 204
196 207 203 192 206 211 199 213 214 200 215 209 195 210 195 187 198 213 206 214 206 196
205 198 187 195 198 181 187 197 175 177 134 104 102 115 80 74 241 197 186 149 100 85
109 56 38 171 116 96 222 166 149 248 195 177 255 217 200 242 193 178 178 131 121 116
 69 59 88 40 26 144 95 78 193 145 123 110 62 39 142 92 69 118 61 41 97 29
 16 132 55 47 165 75 74 169 73 74 160 60 62 148 50 49 139 44 40 121 44 38
 78 31 23 72 44 33 218 196 185 255 239 228 255 237 228 212 177 171
203 197 207 203 200 209 201 198 207 199 196 205 201 195 205 205 199 209 210 202 213 214
204 215 218 204 217 218 202 215 208 190 204 194 180 193 220 214 226 221 219 230 208 205
216 207 200 208 204 193 199 208 189 193 139 113 112 103 68 62 252 208 197 255 207 192
194 139 119 128 71 51 117 62 42 144 91 73 158 107 90 125 76 62 84 36 26 90
 43 35 142 93 79 223 174 157 237 186 165 107 55 33 103 49 25 74 13 0 110 38
 24 130 47 39 144 48 49 139 36 39 132 29 30 134 36 35 139 48 45 129 59 51
 87 53 41 92 74 62 229 211 199 255 243 232 255 247 239 232 191 187
188 175 184 200 189 197 213 202 210 214 204 212 214 203 211 215 202 211 220 207 216 228
212 222 229 212 222 224 204 215 219 197 209 214 198 209 202 200 211 185 189 198 191 191
201 218 212 222 201 188 197 183 162 169 127 95 98 99 57 58 202 153 148 245 191 181
234 178 165 174 121 105 102 50 36 74 28 12 123 81 65 169 130 115 167 124 115 180
136 125 221 173 159 255 217 200 235 183 162 100 43 23 110 49 28 109 42 25 110 34
 21 125 40 33 136 40 41 136 36 38 140 40 42 153 58 56 160 72 68 149 82 74
 58 26 15 119 102 92 247 230 220 255 244 235 247 218 212 175 138 132
230 213 219 233 216 222 227 212 217 217 202 207 200 185 190 186 169 175 171 154 160 166
147 153 165 144 151 174 153 160 204 181 189 229 212 220 219 216 225 197 200 209 188 187
195 207 200 208 212 196 206 234 209 215 164 129 133 69 25 26 200 151 146 235 182 174
253 199 187 243 191 177 212 164 150 210 168 154 226 188 175 200 164 150 255 221 209 249
209 197 253 205 191 255 211 195 215 158 139 110 47 29 139 72 55 157 84 69 140 58
 47 148 59 55 151 55 56 146 48 49 143 47 48 142 51 50 130 47 43 105 42 35
 80 50 42 191 177 168 255 252 243 255 248 241 223 196 189 123 88 82
197 177 178 163 143 144 132 114 114 112 96 96 97 81 81 91 73 73 91 73 73 102
 84 84 109 89 90 108 88 89 111 91 92 116 100 103 161 151 159 215 210 217 234 224
232 210 197 204 195 176 180 253 227 230 202 168 167 75 34 30 192 145 139 238 188 179
249 197 184 250 201 187 236 190 177 183 141 127 133 95 82 99 63 51 197 164 149 220
183 167 250 204 189 255 214 199 217 154 139 124 52 37 131 55 41 138 56 44 135 46
 38 140 46 44 140 42 43 135 36 39 132 40 41 131 45 44 116 38 34 87 28 22
134 107 100 254 241 233 255 246 238 255 246 239 226 203 197 114 84 76
 94 74 73 97 79 77 109 94 91 126 111 108 153 138 135 155 140 137 170 155 152 197
182 179 210 195 192 189 174 171 145 130 127 109 95 94 91 79 81 145 133 135 196 181
184 233 214 216 219 195 195 234 204 202 202 165 159 132 89 82 123 76 66 226 177 163
245 193 179 244 195 180 237 189 175 137 94 78 88 46 34 141 103 90 213 181 166 246
210 194 255 219 205 255 199 185 186 116 104 114 36 24 125 41 31 134 45 37 135 42
 37 143 48 46 151 53 54 153 57 59 155 66 68 153 71 73 131 60 58 100 47 43
149 125 121 255 253 248 249 240 235 255 245 239 226 206 199 101 73 62
137 122 119 194 180 177 239 228 224 255 252 248 255 253 248 255 249 244 253 244 239 254
247 241 255 254 248 255 250 244 234 227 221 212 203 198 181 166 161 123 104 100 98 77
 72 184 159 154 225 195 187 225 188 179 178 138 128 139 93 80 92 43 28 211 160 143
233 180 162 225 172 154 255 207 190 254 205 188 238 190 176 244 202 186 255 223 206 255
222 206 231 183 169 193 131 118 136 62 51 119 34 27 151 60 55 163 68 64 178 80
 77 182 82 82 177 79 80 164 72 75 154 69 72 140 64 66 114 49 47 78 33 28
186 167 163 255 253 250 255 253 250 255 249 242 224 207 199 88 64 52
255 244 242 255 253 248 255 246 244 243 236 230 252 244 241 255 254 248 255 254 250 252
249 242 250 247 242 254 254 246 255 255 250 255 251 242 255 244 236 185 167 157 88 66
 55 83 55 43 94 58 46 124 82 68 124 76 62 107 55 41 78 22 5 110 53 36
153 96 77 189 134 114 170 117 99 151 103 83 185 136 119 200 157 140 175 140 121 167
130 112 139 87 73 129 62 53 124 45 38 152 63 57 175 80 76 161 61 59 165 62
 63 156 56 58 137 41 43 117 27 29 110 30 33 114 44 46 110 52 50 92 52 50
230 214 214 251 247 244 255 253 250 247 240 234 227 213 204 90 68 55
255 250 249 255 249 246 255 250 248 255 253 249 250 246 243 247 246 241 252 251 247 255
255 250 235 236 231 255 255 250 252 254 249 249 250 242 255 253 241 255 246 231 196 179
163 143 117 102 67 30 14 92 45 29 128 72 57 118 56 41 109 43 29 105 39 23
 87 24 7 76 17 0 81 28 10 82 34 14 79 34 13 82 41 21 56 19 1 68
 25 9 102 46 33 132 62 54 158 75 69 150 56 54 122 24 23 136 33 34 125 22
 25 143 43 45 147 51 53 127 41 44 158 82 86 131 69 70 67 17 16 114 83 80
245 233 233 255 254 255 248 244 241 255 254 248 248 235 226 151 132 118
253 245 243 255 253 251 255 252 250 248 243 240 255 254 251 254 250 247 245 244 240 255
255 251 251 252 247 254 255 251 244 246 241 252 255 248 250 252 239 255 255 239 255 242
226 222 196 181 112 75 59 110 61 46 141 82 68 124 56 43 159 89 77 145 73 61
117 49 36 120 57 42 146 88 74 148 97 80 143 96 78 157 112 93 142 96 80 82
 30 16 109 45 35 155 80 74 153 68 65 158 64 62 164 66 65 157 57 57 161 61
 63 178 79 82 180 85 89 150 65 68 131 61 63 91 35 36 84 43 41 168 142 141
252 242 243 255 253 254 248 247 245 255 254 249 255 246 237 173 155 141
194 184 185 234 224 225 255 248 249 255 246 247 255 247 248 255 252 253 251 245 245 255
249 249 255 254 253 255 255 253 244 243 241 251 252 247 245 248 237 245 246 232 255 254
239 239 217 203 108 70 57 88 39 25 123 63 52 109 41 30 128 55 46 125 52 43
123 53 45 169 102 93 239 175 165 251 191 180 238 182 169 255 199 184 188 130 118 99
 35 25 107 34 27 153 74 69 147 59 57 149 55 55 159 63 64 149 51 52 136 38
 39 138 42 44 137 45 48 132 50 54 105 39 41 85 35 36 140 106 105 230 210 211
255 250 253 251 249 252 251 251 251 253 250 245 255 253 244 204 186 174
 69 57 59 114 102 104 161 149 151 183 171 173 236 221 224 255 247 249 255 252 253 249
240 241 240 234 234 254 248 248 255 254 253 255 255 251 250 251 243 239 237 225 255 248
236 208 184 172 89 51 38 67 15 2 95 33 22 95 25 17 89 14 8 103 26 20
107 29 25 146 71 66 211 138 132 216 143 136 185 115 107 188 118 108 143 70 61 106
 29 21 97 16 12 120 35 32 133 45 44 131 39 40 126 34 35 129 35 35 138 44
 44 133 41 42 132 43 45 142 63 66 112 50 53 118 72 74 208 180 179 255 251 251
255 253 255 247 245 248 255 255 255 249 246 241 255 253 246 224 206 194
193 181 181 154 140 140 122 108 108 102 88 88 142 126 127 187 173 173 246 232 232 255
251 251 255 245 244 252 242 241 255 253 251 255 254 251 255 255 248 255 250 242 255 249
239 187 159 148 101 59 47 78 24 12 89 22 13 104 30 21 121 40 36 134 51 47
114 29 26 107 19 17 134 44 43 135 46 42 110 21 15 105 16 10 127 38 32 133
 44 40 129 39 38 122 32 31 122 34 33 139 51 50 154 66 65 153 65 64 167 77
 77 167 79 78 165 79 80 153 77 79 103 44 46 131 91 92 237 216 215 255 252 253
255 250 254 245 243 246 255 254 255 246 243 238 255 253 246 224 206 194
254 242 242 246 232 231 241 227 227 242 226 226 141 125 126 140 124 124 170 156 156 222
208 207 255 251 251 255 250 248 255 248 246 251 243 240 254 249 243 255 252 243 255 239
228 148 114 102 91 43 31 92 30 17 103 26 16 131 46 39 144 53 50 161 66 64
149 51 50 129 29 29 140 38 36 155 51 48 152 49 44 147 44 39 159 57 53 156
 56 54 162 64 65 142 48 48 101 12 14 122 38 38 165 84 81 148 67 64 150 64
 63 139 53 54 135 50 53 113 38 42 81 25 28 153 114 117 255 239 239 251 245 245
252 247 251 247 245 248 255 254 255 248 245 240 255 248 242 210 192 180
255 252 249 255 250 245 255 246 244 255 246 243 255 246 245 205 191 188 130 116 115 136
122 119 238 227 225 255 253 248 255 247 244 254 247 241 248 244 233 253 243 231 249 226
212 118 79 64 85 27 15 123 47 34 141 51 42 164 61 54 156 47 44 166 52 51
173 57 58 168 52 53 165 51 50 176 63 59 181 68 60 171 60 53 164 54 53 160
 52 52 160 57 60 158 62 63 123 34 36 103 22 21 119 41 39 115 37 35 137 56
 53 117 36 35 123 41 43 102 30 33 87 32 35 181 145 147 255 250 251 255 253 254
254 249 253 253 248 252 251 249 250 252 249 244 255 249 243 193 175 163
254 254 246 253 250 243 255 248 242 255 248 243 255 249 245 255 246 243 173 159 156 129
118 114 233 224 219 255 254 248 248 243 237 255 255 248 253 250 241 252 246 234 255 239
228 130 94 82 107 55 44 163 95 86 178 95 89 170 79 76 166 68 67 156 56 58
164 61 64 166 63 66 149 49 49 148 48 46 154 55 50 143 45 42 152 57 61 169
 80 84 160 78 82 190 114 116 204 132 133 135 67 64 100 30 28 129 58 54 138 60
 56 132 54 52 159 85 84 127 63 63 87 39 37 163 133 131 250 236 235 252 248 247
255 252 255 254 252 255 246 245 243 255 252 248 255 252 243 183 165 153
247 255 246 250 255 246 253 255 244 255 254 245 250 243 235 255 251 245 142 129 123 159
148 142 252 245 239 255 255 248 255 255 250 250 251 245 237 238 230 255 255 248 253 240
234 205 184 179 114 80 78 234 192 193 255 215 216 255 205 208 238 182 185 230 171 175
229 170 174 233 174 178 222 161 166 205 145 147 210 148 151 227 168 172 242 191 200 241
195 205 254 215 220 255 227 227 255 222 220 211 166 161 131 76 71 106 41 35 111 40
 34 106 37 30 104 44 36 107 57 48 59 25 15 155 135 124 255 249 239 255 254 247
241 239 240 255 255 255 252 248 247 240 233 227 255 252 240 208 191 175
