P3
16 20
255
229 172 153 169 111 97 98 35 28 108 49 43 93 38 31 118 72 59 143 106 90 135 102 87 104 71 62 118 84 74 92 56 40 201 165 141 255 216 183 241 201 166 246 201 172 195 148 122 
162 105 85 91 34 17 124 64 54 142 83 77 113 59 49 106 58 44 154 115 98 135 98 82 129 91 82 73 35 26 105 66 51 247 209 186 245 209 177 237 201 167 254 217 188 119 82 55 
99 45 17 123 67 44 138 78 67 114 56 45 75 21 9 100 51 36 147 102 83 140 97 80 143 95 85 98 50 40 126 80 67 230 189 169 232 198 170 246 219 189 185 161 133 43 23 0 
177 133 94 129 83 49 95 43 22 152 96 83 221 168 154 246 194 180 192 143 126 102 53 38 78 23 16 97 42 35 81 31 20 91 48 32 237 205 180 235 211 183 99 83 57 91 77 51 
149 127 67 127 99 49 143 102 70 255 218 198 255 203 189 145 91 79 114 57 46 118 61 52 120 62 58 110 55 52 119 69 62 78 34 23 162 129 110 191 167 143 73 53 29 129 113 90 
207 192 123 157 137 78 123 85 48 161 113 91 103 47 34 109 50 42 132 73 65 112 55 48 91 36 33 75 24 21 66 21 16 66 29 20 62 34 20 64 41 23 48 29 12 58 41 23 
224 207 137 220 196 136 95 52 17 112 57 37 126 64 53 134 71 64 73 15 4 85 33 22 69 22 14 72 34 25 68 38 30 58 36 25 50 32 20 54 38 25 45 28 18 63 46 36 
176 159 90 106 81 24 81 38 4 116 60 43 115 55 45 81 20 15 89 35 25 84 38 25 62 24 13 45 15 4 43 21 10 43 24 17 46 31 24 46 31 24 40 21 17 73 54 50 
89 71 9 159 133 82 155 116 83 75 28 10 60 10 1 160 111 106 191 148 139 165 127 116 168 136 123 158 130 119 118 93 86 55 34 29 53 34 30 52 31 30 52 26 27 174 148 149 
200 180 127 208 184 138 145 110 82 58 16 0 81 36 30 166 125 119 127 90 81 119 87 76 110 80 69 153 124 116 129 101 97 115 90 86 28 4 4 157 131 132 127 97 99 140 108 111 
146 127 84 83 59 21 96 61 39 107 67 55 76 37 32 107 69 66 188 155 148 221 191 183 128 98 90 97 67 59 208 179 175 236 206 204 121 91 89 80 50 50 82 48 47 198 164 163 
84 65 33 93 69 43 103 71 56 196 159 151 96 58 55 78 43 39 231 198 191 236 206 198 160 127 118 125 92 83 229 196 189 240 205 201 134 99 97 60 22 21 197 157 157 232 192 192 
92 76 61 106 87 73 128 98 90 139 104 100 156 118 115 148 111 105 132 98 89 175 141 129 158 122 108 140 104 90 191 153 142 165 125 117 104 61 55 143 98 95 247 197 198 147 97 98 
202 189 183 232 214 210 200 172 169 142 108 106 102 64 61 211 174 168 209 175 165 154 118 104 172 135 119 172 130 114 131 87 74 170 123 113 126 76 69 173 120 116 165 107 106 99 39 39 
213 201 201 214 198 198 207 181 180 130 100 98 92 58 56 195 160 154 193 159 150 237 201 189 173 131 117 182 136 121 211 162 148 188 134 122 113 55 44 130 67 60 124 57 51 126 57 52 
211 201 202 209 195 195 224 203 202 222 192 190 147 114 109 193 158 152 147 110 101 147 109 96 202 160 144 148 101 85 126 73 59 191 131 120 118 54 44 101 33 24 138 65 58 135 62 55 
191 183 181 217 206 204 212 193 189 234 205 201 144 107 101 171 130 124 243 203 193 152 113 98 143 102 84 186 141 122 247 194 178 223 161 148 107 37 27 131 57 48 118 43 37 129 54 48 
136 131 127 133 124 119 210 191 187 245 216 212 199 160 155 139 96 89 255 217 205 239 197 181 154 113 95 213 168 149 255 218 202 197 133 121 116 43 34 138 61 53 141 64 58 136 59 53 
238 233 229 195 186 181 113 94 90 146 117 113 151 112 107 106 61 55 173 129 118 184 141 125 178 135 118 211 164 146 192 136 121 132 66 54 136 62 53 153 74 67 137 60 54 149 72 66 
255 250 246 255 253 248 225 204 201 105 76 72 97 56 52 110 65 59 88 41 31 116 70 55 134 91 74 103 56 38 103 45 31 151 85 73 134 60 51 132 53 46 139 62 56 132 55 49 
